HIERARCHY
ROOT mixamorig:Hips
{
	OFFSET -0.000008 104.274872 1.554316
	CHANNELS 6 Xposition Yposition Zposition Xrotation Yrotation Zrotation
	JOINT mixamorig:Spine
	{
		OFFSET -0.000005 10.181595 0.131519
		CHANNELS 6 Xposition Yposition Zposition Xrotation Yrotation Zrotation
		JOINT mixamorig:Spine1
		{
			OFFSET -0.000000 9.893959 -1.470707
			CHANNELS 6 Xposition Yposition Zposition Xrotation Yrotation Zrotation
			JOINT mixamorig:Spine2
			{
				OFFSET -0.000000 9.220757 -1.370641
				CHANNELS 6 Xposition Yposition Zposition Xrotation Yrotation Zrotation
				JOINT mixamorig:Neck
				{
					OFFSET 0.000001 16.740417 -2.049036
					CHANNELS 6 Xposition Yposition Zposition Xrotation Yrotation Zrotation
					JOINT mixamorig:Head
					{
						OFFSET 0.000000 9.617874 1.685006
						CHANNELS 6 Xposition Yposition Zposition Xrotation Yrotation Zrotation
						JOINT mixamorig:HeadTop_End
						{
							OFFSET 0.000002 22.037354 7.501101
							CHANNELS 6 Xposition Yposition Zposition Xrotation Yrotation Zrotation
							End Site
							{
								OFFSET 0.000168 2310.654297 -282.823242
							}
						}
					}
				}
				JOINT mixamorig:RightShoulder
				{
					OFFSET -4.569970 11.014908 -2.160885
					CHANNELS 6 Xposition Yposition Zposition Xrotation Yrotation Zrotation
					JOINT mixamorig:RightArm
					{
						OFFSET -10.592851 -0.524811 -2.232101
						CHANNELS 6 Xposition Yposition Zposition Xrotation Yrotation Zrotation
						JOINT mixamorig:RightForeArm
						{
							OFFSET -27.841511 0.000031 -0.000004
							CHANNELS 6 Xposition Yposition Zposition Xrotation Yrotation Zrotation
							JOINT mixamorig:RightHand
							{
								OFFSET -28.328831 -0.000015 0.000015
								CHANNELS 6 Xposition Yposition Zposition Xrotation Yrotation Zrotation
								JOINT mixamorig:RightHandThumb1
								{
									OFFSET -2.464806 -1.573990 2.681852
									CHANNELS 6 Xposition Yposition Zposition Xrotation Yrotation Zrotation
									JOINT mixamorig:RightHandThumb2
									{
										OFFSET -3.215179 -1.872803 1.924282
										CHANNELS 6 Xposition Yposition Zposition Xrotation Yrotation Zrotation
										JOINT mixamorig:RightHandThumb3
										{
											OFFSET -2.654831 -1.527969 1.512609
											CHANNELS 6 Xposition Yposition Zposition Xrotation Yrotation Zrotation
											JOINT mixamorig:RightHandThumb4
											{
												OFFSET -2.018814 -1.152008 1.108052
												CHANNELS 6 Xposition Yposition Zposition Xrotation Yrotation Zrotation
												End Site
												{
													OFFSET -188.809540 -114.533607 132.431396
												}
											}
										}
									}
								}
								JOINT mixamorig:RightHandIndex1
								{
									OFFSET -9.108284 -0.517868 2.259835
									CHANNELS 6 Xposition Yposition Zposition Xrotation Yrotation Zrotation
									JOINT mixamorig:RightHandIndex2
									{
										OFFSET -3.699989 0.000000 0.001215
										CHANNELS 6 Xposition Yposition Zposition Xrotation Yrotation Zrotation
										JOINT mixamorig:RightHandIndex3
										{
											OFFSET -2.850006 0.000031 -0.000522
											CHANNELS 6 Xposition Yposition Zposition Xrotation Yrotation Zrotation
											JOINT mixamorig:RightHandIndex4
											{
												OFFSET -2.772186 -0.000015 -0.000020
												CHANNELS 6 Xposition Yposition Zposition Xrotation Yrotation Zrotation
												End Site
												{
													OFFSET -277.218445 0.000000 -0.050231
												}
											}
										}
									}
								}
								JOINT mixamorig:RightHandMiddle1
								{
									OFFSET -9.532516 -0.000031 -0.000023
									CHANNELS 6 Xposition Yposition Zposition Xrotation Yrotation Zrotation
									JOINT mixamorig:RightHandMiddle2
									{
										OFFSET -3.700005 -0.000015 0.003713
										CHANNELS 6 Xposition Yposition Zposition Xrotation Yrotation Zrotation
										JOINT mixamorig:RightHandMiddle3
										{
											OFFSET -2.949974 0.000015 -0.002054
											CHANNELS 6 Xposition Yposition Zposition Xrotation Yrotation Zrotation
											JOINT mixamorig:RightHandMiddle4
											{
												OFFSET -2.946640 0.000000 -0.000156
												CHANNELS 6 Xposition Yposition Zposition Xrotation Yrotation Zrotation
												End Site
												{
													OFFSET -294.664337 0.000000 -0.113670
												}
											}
										}
									}
								}
								JOINT mixamorig:RightHandRing1
								{
									OFFSET -9.103600 -0.043076 -1.865134
									CHANNELS 6 Xposition Yposition Zposition Xrotation Yrotation Zrotation
									JOINT mixamorig:RightHandRing2
									{
										OFFSET -3.379288 0.000000 -0.001055
										CHANNELS 6 Xposition Yposition Zposition Xrotation Yrotation Zrotation
										JOINT mixamorig:RightHandRing3
										{
											OFFSET -2.889687 -0.000015 0.000379
											CHANNELS 6 Xposition Yposition Zposition Xrotation Yrotation Zrotation
											JOINT mixamorig:RightHandRing4
											{
												OFFSET -2.638809 -0.000015 0.000941
												CHANNELS 6 Xposition Yposition Zposition Xrotation Yrotation Zrotation
												End Site
												{
													OFFSET -263.880371 0.000000 0.516020
												}
											}
										}
									}
								}
								JOINT mixamorig:RightHandPinky1
								{
									OFFSET -8.076683 -0.486710 -3.806280
									CHANNELS 6 Xposition Yposition Zposition Xrotation Yrotation Zrotation
									JOINT mixamorig:RightHandPinky2
									{
										OFFSET -3.600014 -0.000015 -0.003747
										CHANNELS 6 Xposition Yposition Zposition Xrotation Yrotation Zrotation
										JOINT mixamorig:RightHandPinky3
										{
											OFFSET -2.099983 0.000000 -0.005739
											CHANNELS 6 Xposition Yposition Zposition Xrotation Yrotation Zrotation
											JOINT mixamorig:RightHandPinky4
											{
												OFFSET -2.115768 -0.000031 -0.003680
												CHANNELS 6 Xposition Yposition Zposition Xrotation Yrotation Zrotation
												End Site
												{
													OFFSET -211.577087 0.000000 -0.350686
												}
											}
										}
									}
								}
							}
						}
					}
				}
				JOINT mixamorig:LeftShoulder
				{
					OFFSET 4.570447 11.014725 -2.160855
					CHANNELS 6 Xposition Yposition Zposition Xrotation Yrotation Zrotation
					JOINT mixamorig:LeftArm
					{
						OFFSET 10.592371 -0.524597 -2.232119
						CHANNELS 6 Xposition Yposition Zposition Xrotation Yrotation Zrotation
						JOINT mixamorig:LeftForeArm
						{
							OFFSET 27.841532 -0.000031 0.000026
							CHANNELS 6 Xposition Yposition Zposition Xrotation Yrotation Zrotation
							JOINT mixamorig:LeftHand
							{
								OFFSET 28.328846 -0.000061 0.000022
								CHANNELS 6 Xposition Yposition Zposition Xrotation Yrotation Zrotation
								JOINT mixamorig:LeftHandThumb1
								{
									OFFSET 2.466141 -1.576172 2.681732
									CHANNELS 6 Xposition Yposition Zposition Xrotation Yrotation Zrotation
									JOINT mixamorig:LeftHandThumb2
									{
										OFFSET 3.217812 -1.872070 1.916482
										CHANNELS 6 Xposition Yposition Zposition Xrotation Yrotation Zrotation
										JOINT mixamorig:LeftHandThumb3
										{
											OFFSET 2.656029 -1.528778 1.514513
											CHANNELS 6 Xposition Yposition Zposition Xrotation Yrotation Zrotation
											JOINT mixamorig:LeftHandThumb4
											{
												OFFSET 2.020889 -1.154053 1.115139
												CHANNELS 6 Xposition Yposition Zposition Xrotation Yrotation Zrotation
												End Site
												{
													OFFSET 190.885437 -115.081749 130.048782
												}
											}
										}
									}
								}
								JOINT mixamorig:LeftHandIndex1
								{
									OFFSET 9.109314 -0.518021 2.259871
									CHANNELS 6 Xposition Yposition Zposition Xrotation Yrotation Zrotation
									JOINT mixamorig:LeftHandIndex2
									{
										OFFSET 3.699989 0.000000 -0.000322
										CHANNELS 6 Xposition Yposition Zposition Xrotation Yrotation Zrotation
										JOINT mixamorig:LeftHandIndex3
										{
											OFFSET 2.850006 0.000000 0.000352
											CHANNELS 6 Xposition Yposition Zposition Xrotation Yrotation Zrotation
											JOINT mixamorig:LeftHandIndex4
											{
												OFFSET 2.774864 -0.000031 -0.000027
												CHANNELS 6 Xposition Yposition Zposition Xrotation Yrotation Zrotation
												End Site
												{
													OFFSET 277.486267 0.000000 -0.009857
												}
											}
										}
									}
								}
								JOINT mixamorig:LeftHandMiddle1
								{
									OFFSET 9.533394 0.000061 0.000044
									CHANNELS 6 Xposition Yposition Zposition Xrotation Yrotation Zrotation
									JOINT mixamorig:LeftHandMiddle2
									{
										OFFSET 3.699989 -0.000015 -0.000231
										CHANNELS 6 Xposition Yposition Zposition Xrotation Yrotation Zrotation
										JOINT mixamorig:LeftHandMiddle3
										{
											OFFSET 2.949997 -0.000015 -0.000059
											CHANNELS 6 Xposition Yposition Zposition Xrotation Yrotation Zrotation
											JOINT mixamorig:LeftHandMiddle4
											{
												OFFSET 2.952896 0.000031 0.000063
												CHANNELS 6 Xposition Yposition Zposition Xrotation Yrotation Zrotation
												End Site
												{
													OFFSET 295.289337 0.000000 0.022810
												}
											}
										}
									}
								}
								JOINT mixamorig:LeftHandRing1
								{
									OFFSET 9.104523 -0.042999 -1.865074
									CHANNELS 6 Xposition Yposition Zposition Xrotation Yrotation Zrotation
									JOINT mixamorig:LeftHandRing2
									{
										OFFSET 3.150009 -0.000031 0.000043
										CHANNELS 6 Xposition Yposition Zposition Xrotation Yrotation Zrotation
										JOINT mixamorig:LeftHandRing3
										{
											OFFSET 2.949982 -0.000015 0.000040
											CHANNELS 6 Xposition Yposition Zposition Xrotation Yrotation Zrotation
											JOINT mixamorig:LeftHandRing4
											{
												OFFSET 2.644348 0.000000 0.000057
												CHANNELS 6 Xposition Yposition Zposition Xrotation Yrotation Zrotation
												End Site
												{
													OFFSET 264.434631 0.000000 0.012105
												}
											}
										}
									}
								}
								JOINT mixamorig:LeftHandPinky1
								{
									OFFSET 8.077789 -0.486847 -3.806259
									CHANNELS 6 Xposition Yposition Zposition Xrotation Yrotation Zrotation
									JOINT mixamorig:LeftHandPinky2
									{
										OFFSET 3.599953 0.000031 0.014727
										CHANNELS 6 Xposition Yposition Zposition Xrotation Yrotation Zrotation
										JOINT mixamorig:LeftHandPinky3
										{
											OFFSET 2.100021 0.000015 0.007705
											CHANNELS 6 Xposition Yposition Zposition Xrotation Yrotation Zrotation
											JOINT mixamorig:LeftHandPinky4
											{
												OFFSET 2.125504 0.000031 0.007517
												CHANNELS 6 Xposition Yposition Zposition Xrotation Yrotation Zrotation
												End Site
												{
													OFFSET 212.550781 0.000000 0.625752
												}
											}
										}
									}
								}
							}
						}
					}
				}
			}
		}
	}
	JOINT mixamorig:RightUpLeg
	{
		OFFSET -8.207787 -6.751648 -1.599560
		CHANNELS 6 Xposition Yposition Zposition Xrotation Yrotation Zrotation
		JOINT mixamorig:RightLeg
		{
			OFFSET -0.000002 -44.370117 0.345942
			CHANNELS 6 Xposition Yposition Zposition Xrotation Yrotation Zrotation
			JOINT mixamorig:RightFoot
			{
				OFFSET 0.000003 -44.423679 -3.043532
				CHANNELS 6 Xposition Yposition Zposition Xrotation Yrotation Zrotation
				JOINT mixamorig:RightToeBase
				{
					OFFSET -0.000002 -8.728671 10.710558
					CHANNELS 6 Xposition Yposition Zposition Xrotation Yrotation Zrotation
					JOINT mixamorig:RightToe_End
					{
						OFFSET -0.000001 -0.000679 9.278119
						CHANNELS 6 Xposition Yposition Zposition Xrotation Yrotation Zrotation
						End Site
						{
							OFFSET 0.000000 -0.067690 927.812134
						}
					}
				}
			}
		}
	}
	JOINT mixamorig:LeftUpLeg
	{
		OFFSET 8.207793 -6.751686 -1.599556
		CHANNELS 6 Xposition Yposition Zposition Xrotation Yrotation Zrotation
		JOINT mixamorig:LeftLeg
		{
			OFFSET -0.000004 -44.370014 0.346954
			CHANNELS 6 Xposition Yposition Zposition Xrotation Yrotation Zrotation
			JOINT mixamorig:LeftFoot
			{
				OFFSET -0.000001 -44.423672 -3.044401
				CHANNELS 6 Xposition Yposition Zposition Xrotation Yrotation Zrotation
				JOINT mixamorig:LeftToeBase
				{
					OFFSET -0.000002 -8.728669 10.710558
					CHANNELS 6 Xposition Yposition Zposition Xrotation Yrotation Zrotation
					JOINT mixamorig:LeftToe_End
					{
						OFFSET -0.000003 -0.000679 9.278133
						CHANNELS 6 Xposition Yposition Zposition Xrotation Yrotation Zrotation
						End Site
						{
							OFFSET 0.000000 -0.068021 927.813477
						}
					}
				}
			}
		}
	}
}
MOTION
Frames: 3
Frame Time: 0.033333
0.000006 104.270477 1.554256 0.000010 0.000003 -0.000113 -0.000005 10.181587 0.131522 0.000001 -0.000003 0.000084 -0.000000 9.893967 -1.470711 0.000001 0.000000 -0.000000 -0.000000 9.220802 -1.370642 0.000000 -0.000000 -0.000000 0.000001 16.740433 -2.049030 0.000000 -0.000000 -0.000000 0.000000 9.617859 1.685014 0.000000 0.000000 0.000000 0.000002 22.037384 7.501101 0.000000 -0.000000 0.000000 -4.569968 11.014880 -2.160881 0.000008 0.000001 -0.000038 -10.592878 -0.524726 -2.231954 75.151376 21.021582 -16.248737 -27.841522 0.000016 0.000517 -58.020285 110.732120 77.517333 -28.328833 0.000021 0.000027 -0.000316 -0.000046 0.000009 -2.464427 -1.573766 2.682341 -47.231048 -164.984435 -8.091734 -3.215279 -1.872578 1.924662 155.585671 31.746682 3.905131 -2.654946 -1.527900 1.513098 151.311612 25.699820 -39.817226 -2.018831 -1.152000 1.108069 -0.000001 -0.000002 0.000004 -9.108389 -0.517548 2.260110 97.039236 16.172795 -18.311505 -3.700069 0.000307 0.001482 90.605512 14.162506 -14.287412 -2.850097 0.000353 -0.000282 89.366912 11.741355 -11.612295 -2.772167 0.000001 -0.000025 -0.000002 0.000000 -0.000002 -9.532585 0.000302 0.000232 92.329773 12.409492 -13.063045 -3.700057 0.000335 0.003964 92.673967 9.761498 -10.129182 -2.950044 0.000339 -0.001813 92.218899 10.502876 -10.907972 -2.946625 0.000014 -0.000156 0.000000 -0.000001 0.000000 -9.103694 -0.042734 -1.864878 91.989193 13.394068 -13.818324 -3.379306 0.000340 -0.000812 93.909056 6.873800 -7.376136 -2.889755 0.000372 0.000633 94.679836 6.043644 -6.606311 -2.638813 0.000010 0.000943 0.000003 -0.000002 0.000001 -8.076734 -0.486371 -3.806048 86.063525 14.298369 -13.219994 -3.600010 0.000291 -0.003528 89.620749 5.355480 -4.982202 -2.100003 0.000323 -0.005511 89.194430 3.740606 -3.478084 -2.115775 -0.000053 -0.003679 -0.000001 -0.000002 -0.000000 4.570446 11.014691 -2.160851 -0.000018 0.000010 -0.000021 10.592381 -0.524486 -2.232342 74.980847 -5.261430 4.037102 27.841824 0.000094 -0.000240 95.114865 -68.664513 73.508026 28.328854 -0.000028 0.000021 0.000022 -0.000089 0.000001 2.466011 -1.576144 2.681911 -36.808866 159.920205 -15.548760 3.217829 -1.871761 1.916378 159.348532 -28.065684 16.845130 2.656112 -1.528683 1.514475 134.076026 -29.444607 52.261076 2.020895 -1.154081 1.115152 -0.000003 0.000000 0.000001 9.109377 -0.517854 2.259718 79.247085 -14.235225 11.795181 3.700044 0.000125 -0.000472 76.082215 -15.210503 11.942172 2.850039 0.000152 0.000206 74.303073 -13.357638 10.139730 2.774870 -0.000031 -0.000028 0.000001 -0.000001 0.000001 9.533466 0.000207 -0.000102 78.410777 -13.078521 10.677065 3.700051 0.000155 -0.000372 80.649515 -14.005536 11.902169 2.950075 0.000143 -0.000205 79.611135 -17.502252 14.622450 2.952860 -0.000012 0.000062 0.000000 0.000000 -0.000004 9.104578 -0.042859 -1.865219 75.942230 -12.397330 9.692038 3.150043 0.000182 -0.000104 82.723501 -12.558859 11.068796 2.950026 0.000150 -0.000091 83.870208 -14.691872 13.214101 2.644323 0.000029 0.000056 0.000001 -0.000002 0.000001 8.077835 -0.486733 -3.806414 66.344803 -14.128470 9.646496 3.599995 0.000156 0.014559 68.147236 -13.034514 9.187316 2.100036 0.000157 0.007561 72.197060 -12.750243 9.674450 2.125511 -0.000015 0.007516 0.000001 0.000002 -0.000003 -8.207786 -6.751667 -1.599560 -0.077001 -0.000003 0.000080 -0.000002 -44.370110 0.345938 0.153719 -0.000000 -0.000000 0.000000 -44.423679 -3.043532 -0.076700 0.000000 -0.000002 -0.000006 -8.728667 10.710559 -0.000009 -0.000000 -0.000000 -0.000001 -0.000679 9.278123 0.000000 -0.000000 -0.000000 8.207792 -6.751710 -1.599556 -0.074518 -0.000003 0.000081 -0.000002 -44.370014 0.346960 0.148822 0.000002 0.000000 -0.000001 -44.423664 -3.044403 -0.074314 0.000000 -0.000002 -0.000004 -8.728671 10.710558 0.000007 -0.000000 -0.000000 0.000000 -0.000680 9.278137 -0.000000 0.000000 -0.000001 
0.000006 104.270477 1.554256 0.000010 0.000003 -0.000113 -0.000005 10.181587 0.131522 0.000001 -0.000003 0.000084 -0.000000 9.893967 -1.470711 0.000001 0.000000 -0.000000 -0.000000 9.220802 -1.370642 0.000000 -0.000000 -0.000000 0.000001 16.740433 -2.049030 0.000000 -0.000000 -0.000000 0.000000 9.617859 1.685014 0.000000 0.000000 0.000000 0.000002 22.037384 7.501101 0.000000 -0.000000 0.000000 -4.569968 11.014880 -2.160881 0.000008 0.000001 -0.000038 -10.592879 -0.524728 -2.231947 75.056334 21.497845 -16.592239 -27.841534 0.000014 0.000536 -58.012137 109.296612 76.020743 -28.328815 0.000004 0.000023 -0.000318 -0.000044 0.000008 -2.464427 -1.573798 2.682340 -45.055964 -160.914667 -3.152045 -3.215272 -1.872520 1.924650 152.160946 32.911075 14.927780 -2.654962 -1.527887 1.513079 148.634779 26.924737 -34.114012 -2.018834 -1.151991 1.108063 -0.000000 -0.000003 0.000002 -9.108402 -0.517565 2.260085 91.654097 16.726322 -17.257272 -3.700074 0.000321 0.001477 90.989683 14.200177 -14.420835 -2.850064 0.000358 -0.000272 90.860456 11.349562 -11.519209 -2.772157 -0.000015 -0.000020 -0.000000 -0.000000 0.000001 -9.532605 0.000274 0.000221 88.874176 15.158760 -15.005598 -3.700077 0.000327 0.003968 92.539487 11.927143 -12.365015 -2.950058 0.000343 -0.001800 95.758303 11.832708 -13.067734 -2.946635 -0.000012 -0.000155 0.000002 -0.000000 0.000001 -9.103715 -0.042750 -1.864894 88.559857 16.511171 -16.063389 -3.379310 0.000329 -0.000824 92.153438 8.009118 -8.332517 -2.889750 0.000354 0.000657 99.563189 5.751823 -6.852633 -2.638814 -0.000017 0.000938 0.000006 -0.000000 -0.000001 -8.076751 -0.486382 -3.806038 82.657822 16.804371 -14.669044 -3.600033 0.000287 -0.003537 87.740986 6.117743 -5.550809 -2.100002 0.000329 -0.005484 92.201188 3.365642 -3.277039 -2.115769 -0.000045 -0.003672 -0.000000 -0.000000 -0.000003 4.570446 11.014691 -2.160851 -0.000018 0.000010 -0.000021 10.592365 -0.524507 -2.232307 74.667819 3.518277 -2.683771 27.841822 0.000077 -0.000208 96.037951 -69.734927 75.505125 28.328833 -0.000028 0.000017 0.000019 -0.000088 -0.000000 2.466223 -1.576077 2.681847 -1.653568 167.021443 -88.123743 3.217896 -1.871869 1.916433 163.793305 -19.893418 47.892535 2.656097 -1.528672 1.514507 138.304528 -27.795586 62.439308 2.020902 -1.154070 1.115155 0.000001 0.000003 0.000004 9.109374 -0.517872 2.259742 81.160426 -18.622492 15.976670 3.700017 0.000135 -0.000482 77.928756 -12.359646 10.023017 2.850046 0.000170 0.000211 75.813802 -9.779652 7.621429 2.774899 -0.000033 -0.000026 -0.000000 -0.000002 -0.000002 9.533459 0.000206 -0.000082 80.660689 -18.047694 15.349612 3.700043 0.000161 -0.000400 82.484807 -10.712553 9.396167 2.950055 0.000172 -0.000202 82.078376 -10.403252 9.064441 2.952854 -0.000018 0.000058 0.000000 -0.000001 0.000002 9.104578 -0.042857 -1.865213 80.050944 -17.819134 15.002734 3.150032 0.000178 -0.000099 83.286958 -12.741254 11.340910 2.950011 0.000154 -0.000090 83.725538 -10.538475 9.450074 2.644336 0.000048 0.000062 -0.000001 0.000001 0.000002 8.077837 -0.486733 -3.806377 71.497546 -20.112301 14.997656 3.599998 0.000152 0.014585 71.384868 -17.419708 12.950334 2.100050 0.000160 0.007550 73.221445 -12.526424 9.687850 2.125505 -0.000018 0.007514 0.000002 -0.000002 -0.000000 -8.207786 -6.751667 -1.599560 -0.077001 -0.000003 0.000080 -0.000002 -44.370110 0.345938 0.153719 -0.000000 -0.000000 0.000000 -44.423679 -3.043532 -0.076700 0.000000 -0.000002 -0.000006 -8.728667 10.710559 -0.000009 -0.000000 -0.000000 -0.000001 -0.000679 9.278123 0.000000 -0.000000 -0.000000 8.207792 -6.751710 -1.599556 -0.074518 -0.000003 0.000081 -0.000002 -44.370014 0.346960 0.148822 0.000002 0.000000 -0.000001 -44.423664 -3.044403 -0.074314 0.000000 -0.000002 -0.000004 -8.728671 10.710558 0.000007 -0.000000 -0.000000 0.000000 -0.000680 9.278137 -0.000000 0.000000 -0.000001 
0.000006 104.270477 1.554256 0.000010 0.000003 -0.000113 -0.000005 10.181587 0.131522 0.000001 -0.000003 0.000084 -0.000000 9.893967 -1.470711 0.000001 0.000000 -0.000000 -0.000000 9.220802 -1.370642 0.000000 -0.000000 -0.000000 0.000001 16.740433 -2.049030 0.000000 -0.000000 -0.000000 0.000000 9.617859 1.685014 0.000000 0.000000 0.000000 0.000002 22.037384 7.501101 0.000000 -0.000000 0.000000 -4.569968 11.014880 -2.160881 0.000008 0.000001 -0.000038 -10.592864 -0.524786 -2.231874 74.114478 35.146166 -26.899189 -27.841526 -0.000000 0.000552 -56.341008 106.092618 70.891968 -28.328819 0.000017 0.000024 -0.000317 -0.000044 0.000007 -2.464402 -1.573810 2.682335 -43.312504 -158.846267 0.566514 -3.215259 -1.872563 1.924643 152.427624 32.403763 11.133050 -2.654964 -1.527888 1.513073 146.817962 27.280144 -33.696967 -2.018834 -1.152016 1.108064 -0.000002 0.000003 0.000005 -9.108381 -0.517563 2.260107 93.498699 16.392840 -17.459905 -3.700066 0.000314 0.001500 92.321372 13.849791 -14.392066 -2.850095 0.000373 -0.000276 91.849741 10.873241 -11.226866 -2.772171 0.000002 -0.000021 0.000003 -0.000001 -0.000000 -9.532586 0.000276 0.000219 90.381120 14.949829 -15.190219 -3.700068 0.000335 0.003971 92.803174 11.758090 -12.244503 -2.950061 0.000347 -0.001812 94.828461 11.418968 -12.408981 -2.946637 0.000000 -0.000155 0.000003 -0.000001 -0.000001 -9.103699 -0.042752 -1.864875 89.700260 16.632972 -16.503165 -3.379314 0.000324 -0.000802 92.959332 9.020282 -9.514619 -2.889731 0.000345 0.000643 99.332684 6.309427 -7.481239 -2.638819 0.000001 0.000939 -0.000004 -0.000002 0.000004 -8.076741 -0.486382 -3.806031 83.547987 17.020768 -15.091769 -3.600028 0.000284 -0.003530 88.394526 7.534958 -6.986137 -2.100013 0.000324 -0.005476 92.903933 4.252110 -4.246948 -2.115781 -0.000053 -0.003682 0.000001 0.000001 -0.000001 4.570446 11.014691 -2.160851 -0.000018 0.000010 -0.000021 10.592393 -0.524481 -2.232362 73.865374 -10.481643 7.888855 27.841825 0.000055 -0.000177 97.783836 -72.279254 79.851311 28.328833 -0.000029 0.000020 0.000021 -0.000089 -0.000000 2.466264 -1.576012 2.681821 9.124744 173.313318 -108.552019 3.217869 -1.871880 1.916440 162.659753 -18.139874 55.447189 2.656109 -1.528697 1.514491 139.133590 -27.531413 60.347863 2.020892 -1.154055 1.115147 -0.000006 0.000000 -0.000001 9.109365 -0.517865 2.259744 83.681524 -19.242545 17.250024 3.700045 0.000135 -0.000472 79.991740 -13.278222 11.169205 2.850046 0.000176 0.000213 77.851480 -10.587239 8.558105 2.774879 -0.000029 -0.000023 0.000001 0.000003 0.000000 9.533464 0.000206 -0.000069 82.340369 -19.230620 16.846504 3.700048 0.000149 -0.000394 84.256093 -11.619532 10.513533 2.950066 0.000154 -0.000196 83.692056 -10.576370 9.479562 2.952890 -0.000015 0.000064 0.000000 0.000001 -0.000001 9.104577 -0.042870 -1.865212 81.602333 -19.229131 16.640223 3.150065 0.000188 -0.000101 85.209089 -14.385693 13.242847 2.950029 0.000170 -0.000098 84.781000 -11.185773 10.217613 2.644323 0.000030 0.000059 -0.000001 0.000000 0.000001 8.077829 -0.486749 -3.806392 73.226595 -21.384901 16.438447 3.600019 0.000130 0.014584 71.956432 -19.172334 14.380743 2.100036 0.000159 0.007556 73.426084 -13.566040 10.508212 2.125496 -0.000000 0.007512 -0.000002 -0.000000 0.000000 -8.207786 -6.751667 -1.599560 -0.077001 -0.000003 0.000080 -0.000002 -44.370110 0.345938 0.153719 -0.000000 -0.000000 0.000000 -44.423679 -3.043532 -0.076700 0.000000 -0.000002 -0.000006 -8.728667 10.710559 -0.000009 -0.000000 -0.000000 -0.000001 -0.000679 9.278123 0.000000 -0.000000 -0.000000 8.207792 -6.751710 -1.599556 -0.074518 -0.000003 0.000081 -0.000002 -44.370014 0.346960 0.148822 0.000002 0.000000 -0.000001 -44.423664 -3.044403 -0.074314 0.000000 -0.000002 -0.000004 -8.728671 10.710558 0.000007 -0.000000 -0.000000 0.000000 -0.000680 9.278137 -0.000000 0.000000 -0.000001 
